<svg width="27" height="22" viewBox="0 0 27 22" fill="none" xmlns="http://www.w3.org/2000/svg">
<path d="M14.8857 2.53267L14.8854 2.5329L13.8466 3.52975L13.5004 3.86195L13.1542 3.52975L12.1154 2.5329L12.1148 2.53232C9.62957 0.139706 5.60684 -0.226298 2.9326 1.89571C-0.141535 4.33902 -0.30012 8.70913 2.44599 11.3531L14.8857 2.53267ZM14.8857 2.53267C17.3764 0.139453 21.3941 -0.226083 24.0682 1.89571C27.1423 4.33903 27.3008 8.70905 24.5496 11.353L24.5495 11.3531L14.3457 21.1644C14.3457 21.1644 14.3456 21.1644 14.3456 21.1645C13.88 21.6118 13.1155 21.6118 12.6499 21.1645C12.6499 21.1644 12.6498 21.1644 12.6498 21.1644L2.44621 11.3533L14.8857 2.53267Z" fill="#EE3C3C" stroke="#F2F2F2"/>
</svg>
