<svg xmlns="http://www.w3.org/2000/svg" xmlns:xlink="http://www.w3.org/1999/xlink" version="1.1" width="24pt" height="24pt" viewBox="0 0 24 24">
<path transform="matrix(1,0,0,-1,5,21.077515)" d="M7 10.077513C7.791125 10.077513 8.564484 10.312109 9.222281 10.751635 9.880077 11.19116 10.392768 11.815874 10.695518 12.546779 10.998269 13.277683 11.077482 14.08195 10.923141 14.857874 10.768801 15.633799 10.387837 16.34653 9.828427 16.905941 9.269017 17.465352 8.556285 17.846314 7.780361 18.000655 7.004437 18.154995 6.200171 18.07578 5.469266 17.773032 4.738361 17.47028 4.113647 16.95759 3.674122 16.299794 3.234596 15.641997 3 14.868638 3 14.077513 3 13.016647 3.421427 11.999231 4.171573 11.249085 4.921718 10.49894 5.939134 10.077513 7 10.077513ZM7 16.077513C7.395563 16.077513 7.782242 15.960215 8.11114 15.740452 8.440039 15.520689 8.696384 15.208332 8.847759 14.84288 8.999134 14.477427 9.038741 14.075294 8.961571 13.687332 8.8844 13.29937 8.693918 12.943005 8.414213 12.6633 8.134508 12.383595 7.778142 12.193112 7.390181 12.115942 7.002219 12.038772 6.600086 12.078379 6.234633 12.229753 5.869181 12.381128 5.556824 12.637474 5.337061 12.966372 5.117298 13.295271 5 13.68195 5 14.077513 5 14.607945 5.210714 15.116653 5.585787 15.491727 5.96086 15.866799 6.469567 16.077513 7 16.077513ZM7 8.077513C5.143485 8.077513 3.363007 7.340014 2.050252 6.02726 .737498 4.714505 0 2.934029 0 1.077513 0 .812296 .105357 .557941 .292893 .370405 .48043 .182869 .734784 .077513 1 .077513 1.265216 .077513 1.51957 .182869 1.707107 .370405 1.894643 .557941 2 .812296 2 1.077513 2 2.403595 2.526784 3.675364 3.464466 4.613047 4.402148 5.550729 5.673918 6.077513 7 6.077513 8.326082 6.077513 9.597852 5.550729 10.535534 4.613047 11.473216 3.675364 12 2.403595 12 1.077513 12 .812296 12.105356 .557941 12.292892 .370405 12.480429 .182869 12.734783 .077513 13 .077513 13.265217 .077513 13.519571 .182869 13.707108 .370405 13.894644 .557941 14 .812296 14 1.077513 14 2.934029 13.262502 4.714505 11.949747 6.02726 10.636992 7.340014 8.856516 8.077513 7 8.077513Z" fill="#f2f2f2"/>
</svg>
