<svg width="17" height="13" viewBox="0 0 17 13" fill="none" xmlns="http://www.w3.org/2000/svg">
<path d="M12.2428 8.35614L11.8303 8.78042H12.422H12.9367C13.0887 8.78042 13.2242 8.82857 13.3167 8.90296L16.4635 11.4333C16.4636 11.4335 16.4638 11.4336 16.4639 11.4337C16.5576 11.5101 16.5912 11.597 16.591 11.6703C16.5908 11.7437 16.5568 11.8309 16.4613 11.9077L15.5678 12.6262L15.5668 12.627C15.3655 12.7906 15.0166 12.7917 14.8109 12.6262L11.6631 10.095C11.5724 10.022 11.5354 9.93563 11.5354 9.85822V9.44439V8.9919L11.1524 9.23275C10.0795 9.9073 8.72415 10.3115 7.24417 10.3115C3.70094 10.3115 0.927124 8.01163 0.927124 5.28073C0.927124 2.54983 3.70094 0.25 7.24417 0.25C10.7874 0.25 13.5612 2.54983 13.5612 5.28073C13.5612 6.43311 13.0753 7.4999 12.2428 8.35614ZM2.95291 5.28073C2.95291 7.26452 4.92771 8.78042 7.24417 8.78042C9.56406 8.78042 11.5354 7.26176 11.5354 5.28073C11.5354 3.29694 9.56063 1.78105 7.24417 1.78105C4.92428 1.78105 2.95291 3.2997 2.95291 5.28073Z" fill="#0C0C0C" stroke="#F2F2F2" stroke-width="0.5"/>
</svg>
